# xmcd
#
# Track frame offsets: 
#        150
#        14027
#        28130
#        45345
#        62898
#        71637
#
# Disc length: 1092 seconds
#
# Revision: 0
# Processed by: cddbd v1.5.1PL2 Copyright (c) Steve Scherf et al.
# Submitted via: ExactAudioCopy v0.90b4
#
DISCID=51044206
DTITLE=Jones - Jones
DYEAR=2006
DGENRE=Folk
TTITLE0=Look at Miss Ohio
TTITLE1=West Virginia
TTITLE2=Loving Arms
TTITLE3=Straight to Hell
TTITLE4=Promise You Anything
TTITLE5=One Little Song
EXTD=
EXTT0=
EXTT1=
EXTT2=
EXTT3=
EXTT4=
EXTT5=
PLAYORDER=
